<?xml version="1.0" encoding="utf-8"?>
<!-- Generator: Adobe Illustrator 24.0.0, SVG Export Plug-In . SVG Version: 6.00 Build 0)  -->
<svg version="1.1" id="Layer_2" xmlns="http://www.w3.org/2000/svg" xmlns:xlink="http://www.w3.org/1999/xlink" x="0px" y="0px"
	 viewBox="0 0 1422.08 1446.65" style="enable-background:new 0 0 1422.08 1446.65;" xml:space="preserve">
<style type="text/css">
	.st0{fill:#FFFFFF;stroke:#FFFFFF;stroke-miterlimit:10;}
	.st1{fill:#10AB8D;}
</style>
<rect x="-13.41" y="-0.98" class="st0" width="1434.3" height="1446.44"/>
<path class="st1" d="M220.54,361.81V197.62c0,0,264.3,0,371.09,0s206.9-6.67,349.73,73.42s224.07,226.08,250.95,372.42
	c24.03,130.81-14.68,262.96-80.09,357.74c-101.3,146.77-237.6,209.57-344.39,225.59c-106.79,16.02-273.64,6.67-348.39,6.67
	s-177.53,0-177.53,0V727.55l364.41-270.97l357.74,272.31l-164.19,80.09L603.64,662.15L406.08,810.31v261.63c0,0,153.51,0,242.94,0
	s196.22-8.01,311.02-137.49s85.43-336.38-9.34-444.5s-189.55-128.15-268.3-128.15S223.21,361.81,220.54,361.81z"/>
<rect x="549.58" y="774.27" class="st1" width="44.05" height="43.38"/>
<rect x="613.65" y="774.27" class="st1" width="44.05" height="43.38"/>
<rect x="549.58" y="838.68" class="st1" width="44.05" height="43.38"/>
<rect x="613.65" y="838.68" class="st1" width="44.05" height="43.38"/>
</svg>
