<svg width="33" height="33" viewBox="0 0 33 33" fill="none" xmlns="http://www.w3.org/2000/svg">
<mask id="mask0_188_1210" style="mask-type:alpha" maskUnits="userSpaceOnUse" x="0" y="0" width="33" height="33">
<rect width="33" height="33" fill="#ED834E"/>
</mask>
<g mask="url(#mask0_188_1210)">
<path d="M15.2625 26.125H17.6688V24.4062C18.8146 24.2 19.8 23.7531 20.625 23.0656C21.45 22.3781 21.8625 21.3583 21.8625 20.0063C21.8625 19.0438 21.5875 18.1615 21.0375 17.3594C20.4875 16.5573 19.3875 15.8583 17.7375 15.2625C16.3625 14.8042 15.4115 14.4031 14.8844 14.0594C14.3573 13.7156 14.0938 13.2458 14.0938 12.65C14.0938 12.0542 14.306 11.5844 14.7304 11.2406C15.1539 10.8969 15.7667 10.725 16.5688 10.725C17.3021 10.725 17.875 10.9028 18.2875 11.2585C18.7 11.6132 18.9979 12.0542 19.1812 12.5812L21.3813 11.6875C21.1292 10.8854 20.6653 10.1865 19.9897 9.59062C19.3132 8.99479 18.5625 8.6625 17.7375 8.59375V6.875H15.3312V8.59375C14.1854 8.84583 13.2917 9.35 12.65 10.1062C12.0083 10.8625 11.6875 11.7104 11.6875 12.65C11.6875 13.7271 12.0028 14.5979 12.6335 15.2625C13.2632 15.9271 14.2542 16.5 15.6063 16.9813C17.05 17.5083 18.0528 17.9781 18.6147 18.3906C19.1758 18.8031 19.4562 19.3417 19.4562 20.0063C19.4562 20.7625 19.1868 21.318 18.6478 21.6728C18.1097 22.0284 17.4625 22.2062 16.7062 22.2062C15.95 22.2062 15.2799 21.9711 14.696 21.5009C14.1112 21.0315 13.6812 20.3271 13.4062 19.3875L11.1375 20.2812C11.4583 21.3813 11.957 22.2695 12.6335 22.946C13.3091 23.6216 14.1854 24.0854 15.2625 24.3375V26.125ZM16.5 30.25C14.5979 30.25 12.8104 29.8888 11.1375 29.1665C9.46458 28.4451 8.00938 27.4656 6.77188 26.2281C5.53438 24.9906 4.55492 23.5354 3.8335 21.8625C3.11117 20.1896 2.75 18.4021 2.75 16.5C2.75 14.5979 3.11117 12.8104 3.8335 11.1375C4.55492 9.46458 5.53438 8.00938 6.77188 6.77188C8.00938 5.53438 9.46458 4.55446 11.1375 3.83212C12.8104 3.11071 14.5979 2.75 16.5 2.75C18.4021 2.75 20.1896 3.11071 21.8625 3.83212C23.5354 4.55446 24.9906 5.53438 26.2281 6.77188C27.4656 8.00938 28.4451 9.46458 29.1665 11.1375C29.8888 12.8104 30.25 14.5979 30.25 16.5C30.25 18.4021 29.8888 20.1896 29.1665 21.8625C28.4451 23.5354 27.4656 24.9906 26.2281 26.2281C24.9906 27.4656 23.5354 28.4451 21.8625 29.1665C20.1896 29.8888 18.4021 30.25 16.5 30.25Z" fill="#85BB65"/>
</g>
</svg>
